<?xml version="1.0" standalone="no"?>
<!DOCTYPE svg PUBLIC "-//W3C//DTD SVG 20010904//EN"
 "http://www.w3.org/TR/2001/REC-SVG-20010904/DTD/svg10.dtd">
<svg version="1.0" xmlns="http://www.w3.org/2000/svg"
 width="831.000000pt" height="637.000000pt" viewBox="0 0 831.000000 637.000000"
 preserveAspectRatio="xMidYMid meet">

<g transform="translate(0.000000,637.000000) scale(0.100000,-0.100000)"
fill="#ffffff" stroke="#ffffff">
<path d="M6649 5802 c-14 -6 -281 -266 -437 -425 -26 -27 -95 -96 -154 -154
-123 -122 -128 -134 -70 -191 21 -20 56 -58 78 -84 73 -84 45 -102 441 289
333 330 351 350 346 378 -4 20 -33 57 -90 113 -46 45 -87 82 -91 81 -4 0 -14
-3 -23 -7z"/>
<path d="M1702 5763 c-85 -87 -122 -134 -122 -156 0 -17 89 -112 350 -373 193
-192 353 -351 355 -353 15 -13 186 163 199 206 6 19 -40 69 -340 368 -390 387
-375 376 -442 308z"/>
<path d="M4080 5500 c-96 -4 -188 -13 -203 -19 -16 -6 -44 -11 -63 -11 -35 0
-131 -24 -266 -66 -43 -13 -82 -24 -87 -24 -5 0 -38 -13 -73 -29 -35 -16 -92
-41 -128 -57 -36 -15 -76 -35 -90 -45 -14 -9 -50 -30 -80 -46 -30 -16 -66 -36
-80 -44 -24 -14 -180 -128 -190 -138 -3 -3 -27 -24 -55 -46 -117 -92 -310
-304 -405 -445 -8 -12 -22 -32 -31 -44 -27 -36 -159 -286 -191 -361 -28 -67
-48 -126 -74 -220 -14 -49 -30 -103 -36 -120 -6 -16 -14 -57 -20 -90 -5 -33
-16 -92 -24 -131 -13 -57 -15 -121 -11 -330 5 -257 17 -377 50 -494 8 -30 25
-93 38 -140 12 -47 38 -123 58 -170 47 -111 155 -323 192 -378 16 -24 29 -47
29 -51 0 -5 16 -26 35 -47 19 -22 52 -63 72 -93 38 -57 150 -181 217 -241 22
-19 54 -48 72 -65 125 -117 307 -237 509 -334 113 -55 141 -66 220 -92 39 -12
86 -28 105 -34 145 -51 360 -85 580 -92 268 -8 501 22 715 92 22 8 56 17 75
21 19 3 44 13 55 20 11 8 25 14 33 14 7 0 45 15 85 34 40 18 83 37 97 41 14 4
36 15 50 24 56 36 66 42 93 52 15 6 27 15 27 19 0 5 9 12 20 15 11 3 26 12 32
18 7 7 33 25 58 40 109 66 185 130 324 272 91 92 262 299 287 347 8 14 41 73
74 129 33 57 73 133 88 169 97 223 96 220 126 350 9 41 20 80 24 86 4 7 14 58
22 115 9 57 20 136 26 174 14 85 6 487 -10 530 -6 17 -15 68 -21 114 -5 46
-14 89 -19 95 -4 6 -11 33 -15 60 -3 27 -13 60 -21 72 -8 13 -15 34 -15 47 0
12 -9 40 -20 62 -11 22 -20 43 -20 48 0 25 -159 341 -211 418 -98 148 -189
256 -331 395 -92 90 -213 192 -259 219 -9 6 -68 42 -131 81 -62 39 -138 83
-168 96 -30 14 -84 39 -120 56 -36 16 -90 38 -120 47 -30 9 -77 25 -105 35
-108 39 -377 87 -530 94 -49 2 -169 0 -265 -4z m420 -311 c19 -6 64 -16 100
-24 209 -41 355 -94 557 -204 232 -124 445 -303 585 -491 134 -179 165 -226
217 -331 104 -209 151 -358 201 -634 12 -68 12 -426 0 -500 -6 -33 -16 -96
-23 -140 -7 -44 -17 -87 -22 -95 -5 -7 -14 -37 -21 -64 -56 -217 -215 -521
-364 -696 -113 -132 -328 -329 -417 -382 -30 -18 -81 -48 -112 -67 -92 -55
-243 -127 -296 -141 -27 -7 -55 -17 -61 -22 -27 -20 -221 -67 -374 -90 -83
-12 -412 -12 -510 1 -203 26 -406 91 -617 196 -76 38 -140 71 -143 74 -5 7
-29 22 -74 49 -192 115 -492 439 -608 656 -90 170 -146 298 -170 391 -6 22
-16 54 -24 72 -7 17 -18 68 -24 113 -6 45 -16 94 -22 108 -14 38 -13 514 2
572 6 25 15 71 20 102 7 53 18 93 56 208 9 25 19 60 24 78 4 18 12 38 18 45 5
7 22 44 37 82 15 39 32 75 37 82 5 7 17 27 27 45 36 72 75 128 203 297 58 77
250 266 328 324 191 142 453 275 637 322 28 7 55 15 60 18 5 3 52 13 104 21
52 9 108 20 124 25 43 13 502 13 545 0z"/>
<path d="M4011 4947 c-63 -4 -126 -14 -140 -21 -14 -8 -46 -17 -71 -21 -67
-11 -268 -80 -325 -111 -27 -15 -70 -37 -95 -50 -88 -43 -257 -174 -365 -281
-118 -118 -142 -146 -156 -180 -5 -13 -12 -23 -17 -23 -9 0 -92 -122 -92 -135
0 -3 -13 -25 -29 -49 -30 -43 -93 -172 -105 -216 -4 -14 -19 -63 -32 -110 -14
-47 -32 -107 -39 -135 -8 -27 -22 -140 -30 -250 -14 -180 -14 -207 -1 -265 9
-36 16 -87 16 -115 1 -27 7 -68 15 -90 8 -22 15 -49 15 -61 0 -11 16 -65 36
-120 19 -54 39 -114 44 -132 4 -19 15 -41 24 -51 9 -10 16 -21 16 -25 0 -24
177 -300 232 -363 60 -68 213 -213 225 -213 6 0 18 -9 26 -20 52 -74 459 -284
592 -305 22 -4 60 -13 85 -20 55 -16 294 -45 377 -45 86 0 329 28 388 45 130
36 203 59 235 73 69 30 236 113 261 130 14 9 45 30 68 45 141 94 350 288 407
378 15 24 40 60 55 79 29 37 50 73 123 214 25 49 46 97 46 106 0 9 4 20 9 26
9 9 48 129 71 214 6 25 15 77 20 115 5 39 14 104 21 146 11 78 -1 338 -21 446
-15 79 -41 187 -50 208 -5 11 -19 49 -30 84 -34 102 -64 162 -161 321 -69 112
-197 264 -302 358 -77 69 -238 184 -317 226 -74 39 -151 76 -159 76 -5 0 -44
14 -86 31 -71 28 -111 39 -270 74 -74 16 -361 23 -514 12z m373 -296 c17 -5
65 -14 106 -20 75 -10 168 -33 205 -50 193 -89 327 -162 370 -203 17 -16 41
-35 55 -43 36 -19 175 -169 242 -259 114 -154 230 -430 244 -577 3 -35 13 -94
21 -131 13 -58 14 -85 4 -180 -24 -228 -22 -219 -89 -418 -24 -73 -96 -229
-110 -240 -4 -3 -14 -17 -22 -32 -59 -104 -176 -237 -298 -338 -76 -63 -252
-171 -324 -200 -29 -12 -66 -27 -83 -35 -123 -54 -400 -101 -535 -91 -92 7
-263 33 -295 46 -11 4 -60 20 -110 36 -49 15 -106 36 -125 46 -19 10 -38 18
-42 18 -12 0 -183 113 -264 174 -93 71 -203 188 -284 306 -60 85 -134 227
-146 278 -4 15 -10 32 -14 37 -12 16 -59 195 -71 270 -21 128 -22 263 -5 365
37 207 58 296 75 313 6 6 11 18 11 27 0 8 18 51 40 94 22 43 40 84 40 91 0 7
9 22 20 35 11 13 20 27 20 32 0 5 21 35 46 66 25 31 52 66 61 77 58 72 127
144 162 170 23 17 56 43 73 58 33 28 145 96 248 150 60 31 219 87 248 87 10 0
23 5 28 10 6 6 44 14 85 17 41 3 81 9 89 14 21 11 286 11 324 0z"/>
<path d="M4087 4398 c-18 -13 -19 -40 -18 -508 0 -271 4 -497 8 -501 11 -11
271 -15 281 -5 4 4 8 229 10 500 2 451 1 494 -14 507 -24 20 -242 26 -267 7z"/>
<path d="M3676 4277 c-21 -12 -46 -28 -55 -35 -15 -12 -30 -23 -121 -85 -56
-39 -162 -147 -205 -211 -74 -107 -115 -171 -121 -186 -3 -8 -14 -33 -25 -56
-10 -23 -19 -50 -19 -60 -1 -10 -9 -37 -20 -59 -11 -22 -19 -56 -20 -75 0 -20
-7 -62 -15 -93 -42 -161 2 -454 98 -658 117 -247 337 -459 592 -570 122 -53
194 -71 368 -90 108 -12 125 -11 244 10 198 34 294 68 443 158 127 77 294 234
354 334 108 180 145 270 170 419 7 41 19 95 26 120 14 52 8 174 -16 315 -17
96 -60 242 -75 251 -5 3 -9 13 -9 22 0 10 -16 41 -35 71 -19 29 -35 56 -35 60
0 14 -88 127 -144 185 -31 33 -60 65 -64 71 -6 10 -76 61 -161 117 -57 39
-130 71 -145 65 -14 -5 -16 -27 -16 -151 0 -79 3 -151 6 -160 3 -9 27 -31 53
-49 55 -40 186 -172 205 -207 68 -125 101 -205 126 -311 27 -115 27 -245 0
-329 -11 -34 -20 -71 -20 -82 0 -36 -58 -154 -123 -253 -41 -61 -148 -175
-164 -175 -5 0 -20 -11 -32 -24 -12 -13 -41 -32 -64 -42 -23 -10 -49 -23 -57
-29 -8 -7 -28 -17 -45 -23 -16 -6 -61 -23 -100 -37 -60 -23 -91 -27 -211 -32
-174 -7 -215 4 -439 112 -85 41 -113 61 -182 131 -92 93 -166 198 -190 271 -9
26 -19 53 -23 58 -4 6 -11 30 -15 54 -4 24 -14 59 -21 77 -9 22 -14 73 -14
150 0 172 47 326 148 484 37 58 175 199 223 227 37 22 41 45 37 208 l-3 130
-25 2 c-14 2 -43 -7 -64 -20z"/>
<path d="M620 3290 c-13 -25 -13 -236 0 -261 10 -18 27 -19 538 -19 397 0 531
3 540 12 15 15 16 228 1 261 l-11 24 -529 0 c-503 1 -530 0 -539 -17z"/>
<path d="M6741 3297 c-12 -12 -16 -242 -5 -271 5 -14 62 -16 534 -16 455 0
529 2 540 15 18 22 25 232 9 262 l-13 24 -527 -1 c-378 -1 -530 -5 -538 -13z"/>
<path d="M1971 1128 c-215 -215 -391 -399 -391 -408 0 -9 38 -56 84 -103 60
-63 90 -87 108 -87 19 0 64 40 185 163 89 89 263 263 387 386 162 161 226 231
226 247 0 28 -163 194 -190 194 -11 0 -176 -158 -409 -392z"/>
<path d="M5968 1453 c-36 -38 -75 -76 -87 -85 -11 -10 -21 -26 -21 -37 0 -11
155 -174 389 -410 322 -324 393 -391 415 -391 29 0 85 49 160 139 31 37 34 46
25 64 -6 12 -183 194 -393 405 -259 259 -388 382 -402 382 -12 0 -46 -27 -86
-67z"/>
</g>
</svg>
